<svg width="900" height="900" viewBox="0 0 900 900" fill="none" xmlns="http://www.w3.org/2000/svg">
  <rect width="900" height="900" fill="#F7D5CF"/>
  <path d="M0 218C90 163 208 151 302 166C387 178 482 198 560 172C628 149 707 114 815 138C853 146 878 165 900 184V900H0V218Z" fill="#F8D6CF"/>
  <path d="M112 186C112 148 143 117 181 117H705C756 117 799 160 799 211V611C799 664 756 707 703 707H194C148 707 112 671 112 626V186Z" fill="#4D187A"/>
  <rect x="140" y="145" width="627" height="519" rx="48" fill="#FFBC00"/>
  <path d="M140 230C276 204 412 205 534 222C626 235 697 238 767 225V414H140V230Z" fill="#FFC523"/>
  <path d="M140 372C266 334 408 344 551 365C634 377 699 381 767 373V586H140V372Z" fill="#6177D8"/>
  <path d="M256 212C315 164 384 161 446 206C496 242 519 245 582 220C642 196 711 204 767 238V268H140V246C182 258 218 244 256 212Z" fill="white"/>
  <path d="M437 319C476 274 536 258 588 275C629 289 672 321 704 370V392H409C406 364 414 344 437 319Z" fill="white"/>
  <path d="M600 352C633 327 670 319 714 331C737 338 751 346 767 361V391H579C580 372 586 364 600 352Z" fill="#FFE3D8"/>
  <path d="M180 441C210 414 249 407 286 421C317 432 340 454 360 490V543H152C150 507 157 474 180 441Z" fill="#FFF6F0"/>
  <path d="M344 362C353 330 380 311 416 311C451 311 481 330 494 362V383H344V362Z" fill="#35236D"/>
  <circle cx="399" cy="396" r="55" fill="#FFBBAC"/>
  <path d="M368 390C391 378 408 378 430 391" stroke="#3A2069" stroke-width="6" stroke-linecap="round"/>
  <path d="M385 421C396 430 408 431 421 420" stroke="#E76B7B" stroke-width="6" stroke-linecap="round"/>
  <path d="M316 380C295 365 265 364 241 381L224 394V632H438V520C438 458 404 406 348 390L316 380Z" fill="#F4A0B0"/>
  <path d="M218 394H330L342 460H224L218 394Z" fill="#FFF7F2"/>
  <path d="M216 468H346L360 632H224L216 468Z" fill="#F7B6C4"/>
  <path d="M196 406C180 386 159 376 133 378V632H224V423L196 406Z" fill="#F8D2DA"/>
  <path d="M181 406C168 391 148 382 126 382V631H180L181 406Z" fill="#FFF6EF"/>
  <path d="M164 412C145 462 141 510 152 556" stroke="#5B1D80" stroke-width="8" stroke-linecap="round"/>
  <path d="M164 600C184 616 212 622 245 617" stroke="#5B1D80" stroke-width="8" stroke-linecap="round"/>
  <path d="M530 336C544 302 574 284 613 284C654 284 685 305 699 341V632H519L530 336Z" fill="#FFB46E"/>
  <ellipse cx="610" cy="371" rx="63" ry="67" fill="#FFBEA8"/>
  <path d="M557 347C564 304 609 287 646 304C672 316 690 343 691 372C673 360 652 354 626 354C600 354 579 360 560 372C553 365 554 358 557 347Z" fill="#FFCA39"/>
  <path d="M666 270C691 285 702 309 701 341" stroke="#FFCA39" stroke-width="11" stroke-linecap="round"/>
  <path d="M549 433C527 425 509 426 491 438" stroke="#5B1D80" stroke-width="7" stroke-linecap="round"/>
  <path d="M626 393C633 399 642 400 650 395" stroke="#E56E72" stroke-width="6" stroke-linecap="round"/>
  <path d="M522 426C520 452 524 482 538 512" stroke="#FF9A78" stroke-width="8" stroke-linecap="round"/>
  <path d="M677 422C694 438 704 455 708 474" stroke="#FF9A78" stroke-width="8" stroke-linecap="round"/>
  <path d="M565 534C594 510 629 505 667 521C692 531 713 548 729 573V632H520L565 534Z" fill="#FFF8F3"/>
  <path d="M614 544C639 513 682 510 712 537" stroke="#5B1D80" stroke-width="5" stroke-linecap="round"/>
  <circle cx="418" cy="544" r="64" fill="#FFBEA8"/>
  <path d="M363 513C372 476 405 454 444 454C484 454 516 476 525 513V632H363V513Z" fill="#1E1A4A"/>
  <path d="M392 497C398 471 421 454 447 454C474 454 497 471 503 497V515H392V497Z" fill="#372269"/>
  <path d="M428 504C436 496 444 496 452 504" stroke="#E56E72" stroke-width="5" stroke-linecap="round"/>
  <path d="M421 543C436 556 452 556 468 543" stroke="#5B1D80" stroke-width="5" stroke-linecap="round"/>
  <path d="M350 552C332 533 311 524 287 526" stroke="#FF9A78" stroke-width="10" stroke-linecap="round"/>
  <path d="M538 552C555 528 580 514 607 515" stroke="#FF9A78" stroke-width="10" stroke-linecap="round"/>
  <path d="M716 270C759 282 786 311 805 352V651H745V392C745 349 736 310 716 270Z" fill="#FADBCF"/>
  <path d="M734 286C799 316 840 383 850 484V900H746L734 286Z" fill="#F7D6CA"/>
  <path d="M780 334C841 379 874 444 882 536" stroke="#4D187A" stroke-width="4" stroke-linecap="round" opacity="0.2"/>
  <rect x="121" y="262" width="16" height="91" rx="8" fill="#FFF4F0"/>
  <path d="M702 468C727 493 741 522 744 556" stroke="#FF9A78" stroke-width="9" stroke-linecap="round"/>
  <path d="M303 182C336 164 379 162 416 176" stroke="white" stroke-width="4" stroke-linecap="round"/>
  <path d="M531 157C577 129 623 128 670 154" stroke="#5B1D80" stroke-width="4" stroke-linecap="round"/>
  <path d="M615 156C661 95 715 104 760 174" stroke="#5B1D80" stroke-width="4" stroke-linecap="round"/>
  <path d="M544 580C571 596 593 596 619 582" stroke="#FF9A78" stroke-width="5" stroke-linecap="round"/>
  <path d="M414 900L742 564" stroke="#5B1D80" stroke-width="3" stroke-linecap="round"/>
  <path d="M614 345C628 332 646 329 665 336" stroke="#FFAC30" stroke-width="4" stroke-linecap="round"/>
</svg>
